<mxfile host="65bd71144e">
    <diagram id="Z_bB8trHwT-h1kxcsZrp" name="Page-1">
        <mxGraphModel dx="543" dy="659" grid="1" gridSize="10" guides="1" tooltips="1" connect="1" arrows="1" fold="1" page="1" pageScale="1" pageWidth="850" pageHeight="1100" math="0" shadow="0">
            <root>
                <mxCell id="0"/>
                <mxCell id="1" parent="0"/>
                <mxCell id="2" value="" style="rounded=0;whiteSpace=wrap;html=1;fontFamily=Helvetica;fontStyle=1;fontSize=14;opacity=10;" vertex="1" parent="1">
                    <mxGeometry x="40" y="40" width="800" height="620" as="geometry"/>
                </mxCell>
                <mxCell id="3" value="" style="rounded=0;whiteSpace=wrap;html=1;strokeColor=#0066cc;fontFamily=Courier New;fontSize=12;fillColor=#f9f7ed;" vertex="1" parent="1">
                    <mxGeometry x="80" y="90" width="710" height="40" as="geometry"/>
                </mxCell>
                <mxCell id="4" value="&lt;span style=&quot;font-weight: 700;&quot;&gt;Updating a cluster through the CLI&lt;/span&gt;" style="text;html=1;strokeColor=none;fillColor=none;align=center;verticalAlign=middle;whiteSpace=wrap;rounded=0;fontFamily=Helvetica;fontSize=14;fontColor=#151515;" vertex="1" parent="1">
                    <mxGeometry x="80" y="95" width="260" height="30" as="geometry"/>
                </mxCell>
                <mxCell id="5" value="" style="rounded=0;whiteSpace=wrap;html=1;strokeColor=#0066cc;fontFamily=Helvetica;fontSize=12;fillColor=#f9f7ed;" vertex="1" parent="1">
                    <mxGeometry x="200" y="160" width="500" height="40" as="geometry"/>
                </mxCell>
                <mxCell id="6" value="" style="rounded=0;whiteSpace=wrap;html=1;strokeColor=#0066cc;fontFamily=Helvetica;fontSize=12;fillColor=#f9f7ed;" vertex="1" parent="1">
                    <mxGeometry x="180" y="370" width="270" height="70" as="geometry"/>
                </mxCell>
                <mxCell id="7" value="" style="rounded=0;whiteSpace=wrap;html=1;strokeColor=#0066cc;fontFamily=Helvetica;fontSize=12;fillColor=#f9f7ed;" vertex="1" parent="1">
                    <mxGeometry x="460" y="370" width="260" height="70" as="geometry"/>
                </mxCell>
                <mxCell id="8" value="" style="rounded=0;whiteSpace=wrap;html=1;strokeColor=#36393d;fontFamily=Helvetica;fontSize=12;fillColor=#f9f7ed;" vertex="1" parent="1">
                    <mxGeometry x="250" y="460" width="400" height="80" as="geometry"/>
                </mxCell>
                <mxCell id="9" value="" style="rounded=0;whiteSpace=wrap;html=1;strokeColor=#36393d;fontFamily=Helvetica;fontSize=12;fillColor=#f9f7ed;" vertex="1" parent="1">
                    <mxGeometry x="250" y="560" width="400" height="70" as="geometry"/>
                </mxCell>
                <mxCell id="10" value="Run&amp;nbsp;&lt;font face=&quot;Courier New&quot;&gt;$ oc adm upgrade&lt;/font&gt; to view the updates available to your cluster" style="text;html=1;strokeColor=none;fillColor=none;align=center;verticalAlign=middle;whiteSpace=wrap;rounded=0;fontFamily=Helvetica;fontSize=12;fontColor=#151515;opacity=10;" vertex="1" parent="1">
                    <mxGeometry x="210" y="140" width="385" height="80" as="geometry"/>
                </mxCell>
                <mxCell id="11" value="" style="rounded=0;whiteSpace=wrap;html=1;strokeColor=#0066cc;fontFamily=Helvetica;fontSize=12;fillColor=#f9f7ed;" vertex="1" parent="1">
                    <mxGeometry x="200" y="220" width="500" height="40" as="geometry"/>
                </mxCell>
                <mxCell id="12" value="Set the appropriate update channel with&amp;nbsp;&lt;font face=&quot;Courier New&quot;&gt;$ oc adm upgrade channel &amp;lt;channel&amp;gt;&lt;/font&gt;" style="text;html=1;strokeColor=none;fillColor=none;align=left;verticalAlign=middle;whiteSpace=wrap;rounded=0;fontFamily=Helvetica;fontSize=12;fontColor=#151515;opacity=10;" vertex="1" parent="1">
                    <mxGeometry x="210" y="210" width="480" height="60" as="geometry"/>
                </mxCell>
                <mxCell id="13" value="" style="rounded=0;whiteSpace=wrap;html=1;strokeColor=#0066cc;fontFamily=Helvetica;fontSize=12;fillColor=#f9f7ed;" vertex="1" parent="1">
                    <mxGeometry x="385" y="280" width="110" height="40" as="geometry"/>
                </mxCell>
                <mxCell id="14" style="edgeStyle=none;html=1;fontFamily=Courier New;fontSize=12;fontColor=#151515;strokeColor=#000000;entryX=0.423;entryY=-0.007;entryDx=0;entryDy=0;entryPerimeter=0;" edge="1" parent="1" target="6">
                    <mxGeometry relative="1" as="geometry">
                        <mxPoint x="440" y="330" as="sourcePoint"/>
                        <mxPoint x="290" y="400" as="targetPoint"/>
                    </mxGeometry>
                </mxCell>
                <mxCell id="15" style="edgeStyle=none;html=1;fontFamily=Courier New;fontSize=12;fontColor=#151515;entryX=0.571;entryY=-0.044;entryDx=0;entryDy=0;entryPerimeter=0;strokeColor=#000000;" edge="1" parent="1" target="7">
                    <mxGeometry relative="1" as="geometry">
                        <mxPoint x="440" y="330" as="sourcePoint"/>
                        <mxPoint x="305" y="410" as="targetPoint"/>
                    </mxGeometry>
                </mxCell>
                <mxCell id="16" value="&lt;font face=&quot;Helvetica&quot;&gt;Apply an update&lt;/font&gt;" style="text;html=1;strokeColor=none;fillColor=none;align=left;verticalAlign=middle;whiteSpace=wrap;rounded=0;fontFamily=Courier New;fontSize=12;fontColor=#151515;opacity=40;" vertex="1" parent="1">
                    <mxGeometry x="394.07" y="287.5" width="91.87" height="25" as="geometry"/>
                </mxCell>
                <mxCell id="17" value="To update to the latest version, use &lt;br&gt;&lt;font face=&quot;Courier New&quot;&gt;$ oc adm upgrade --to-latest=true&lt;/font&gt;" style="text;html=1;strokeColor=none;fillColor=none;align=center;verticalAlign=middle;whiteSpace=wrap;rounded=0;fontFamily=Helvetica;fontSize=12;fontColor=#151515;opacity=40;" vertex="1" parent="1">
                    <mxGeometry x="180" y="372.5" width="270" height="57.5" as="geometry"/>
                </mxCell>
                <mxCell id="18" value="&lt;font face=&quot;Helvetica&quot;&gt;To update to a specific version, use&amp;nbsp;&lt;/font&gt;&lt;br&gt;$ oc adm upgrade --to=&amp;lt;version&amp;gt;" style="text;html=1;strokeColor=none;fillColor=none;align=center;verticalAlign=middle;whiteSpace=wrap;rounded=0;fontFamily=Courier New;fontSize=12;fontColor=#151515;opacity=40;" vertex="1" parent="1">
                    <mxGeometry x="460" y="368.75" width="260" height="61.25" as="geometry"/>
                </mxCell>
                <mxCell id="19" value="Review the status of the Cluster Version Operator with&amp;nbsp;&lt;br&gt;&lt;font face=&quot;Courier New&quot;&gt;$ oc adm upgrade&lt;/font&gt;&amp;nbsp;" style="text;html=1;strokeColor=none;fillColor=none;align=center;verticalAlign=middle;whiteSpace=wrap;rounded=0;fontFamily=Helvetica;fontSize=12;fontColor=#151515;opacity=40;" vertex="1" parent="1">
                    <mxGeometry x="302.5" y="471.25" width="295" height="57.5" as="geometry"/>
                </mxCell>
                <mxCell id="20" value="After the update completes, confirm that the cluster version has been updated with&lt;br&gt;&lt;font face=&quot;Courier New&quot;&gt;$ oc adm upgrade&lt;/font&gt;" style="text;html=1;strokeColor=none;fillColor=none;align=center;verticalAlign=middle;whiteSpace=wrap;rounded=0;fontFamily=Helvetica;fontSize=12;fontColor=#151515;opacity=40;" vertex="1" parent="1">
                    <mxGeometry x="292.5" y="566.25" width="295" height="57.5" as="geometry"/>
                </mxCell>
            </root>
        </mxGraphModel>
    </diagram>
</mxfile>